# xmcd CD database file
#
# Track frame offsets:
#	150
#	12175
#	25412
#	40422
#	52722
#	65637
#	78620
#	92650
#	104847
#	116977
#	132150
#	145157
#	157880
#	169695
#	181455
#	194342
#	206467
#	222647
#	237332
#	251350
#	267367
#	279942
#	293130
#	307322
#	322390
#	334385
#
# Disc length: 4625 seconds
#
# Revision: 1
# Processed by: cddbd v1.5.1PL2 Copyright (c) Steve Scherf et al.
# Submitted via: CDex 1.50Beta7
#
DISCID=96120f1a
DTITLE=Fats Waller - Honeysuckle Rose-Disc 1
DYEAR=2004
DGENRE=Jazz
TTITLE0=Honeysuckle Rose
TTITLE1=Soothin' Syrup Stomp
TTITLE2=I'm Crazy 'Bout My Baby
TTITLE3=I Wish I Were Twins
TTITLE4=Handful of Keys
TTITLE5=Don't Let It Bother You
TTITLE6=Sweetie Pie
TTITLE7=Believe It, Beloved
TTITLE8=The Minor Drag
TTITLE9=Harlem Fuss
TTITLE10=Numb Fumblin'
TTITLE11=I Ain't Got Nobody
TTITLE12=Whose Honey Are You?
TTITLE13=Oh, Susannah (Dust Off That Old Pianna)
TTITLE14=I've Got a Feeling I'm Falling
TTITLE15=Lulu's Back in Town
TTITLE16=I'm Gonna Sit Right Down and Write Myself a Letter
TTITLE17=Valentine Stomp
TTITLE18=Dinah
TTITLE19=My Very Good Friend the Milkman
TTITLE20=Twelfth Street Rag
TTITLE21=Sweet Sue, Just You
TTITLE22=Smashing Thirds
TTITLE23=Truckin'
TTITLE24=I've Got My Fingers Crossed
TTITLE25=All My Life 
EXTD=YEAR: 2004
EXTT0=
EXTT1=
EXTT2=
EXTT3=
EXTT4=
EXTT5=
EXTT6=
EXTT7=
EXTT8=
EXTT9=
EXTT10=
EXTT11=
EXTT12=
EXTT13=
EXTT14=
EXTT15=
EXTT16=
EXTT17=
EXTT18=
EXTT19=
EXTT20=
EXTT21=
EXTT22=
EXTT23=
EXTT24=
EXTT25=
PLAYORDER=
